<?xml version="1.0" encoding="utf-8"?>
<!-- Generator: Adobe Illustrator 26.0.1, SVG Export Plug-In . SVG Version: 6.00 Build 0)  -->
<svg version="1.1" id="Calque_1" xmlns="http://www.w3.org/2000/svg" xmlns:xlink="http://www.w3.org/1999/xlink" x="0px" y="0px"
	 viewBox="0 0 50 50" style="enable-background:new 0 0 50 50;" xml:space="preserve">
<style type="text/css">
	.st0{fill:#FFFFFF;}
</style>
<path class="st0" d="M36.64,47.91L36.64,47.91c-4.5,0-8.14-3.64-8.14-8.14V10.05c0-4.5,3.64-8.14,8.14-8.14h0
	c4.5,0,8.14,3.64,8.14,8.14v29.72C44.78,44.27,41.14,47.91,36.64,47.91z"/>
<path class="st0" d="M13.63,47.91L13.63,47.91c-4.5,0-8.14-3.64-8.14-8.14V10.05c0-4.5,3.64-8.14,8.14-8.14h0
	c4.5,0,8.14,3.64,8.14,8.14v29.72C21.77,44.27,18.12,47.91,13.63,47.91z"/>
</svg>
